<svg width="45" height="45" viewBox="0 0 45 45" fill="none" xmlns="http://www.w3.org/2000/svg">
<rect y="40" width="5" height="5" fill="white"/>
<rect x="5" y="40" width="5" height="5" fill="white"/>
<rect x="10" y="40" width="5" height="5" fill="white"/>
<rect x="15" y="40" width="5" height="5" fill="white"/>
<rect x="20" y="40" width="5" height="5" fill="white"/>
<rect x="25" y="40" width="5" height="5" fill="white"/>
<rect x="30" y="40" width="5" height="5" fill="white"/>
<rect x="35" y="40" width="5" height="5" fill="white"/>
<rect x="40" y="40" width="5" height="5" fill="white"/>
<rect x="45" width="5" height="5" transform="rotate(90 45 0)" fill="white"/>
<rect x="45" y="5" width="5" height="5" transform="rotate(90 45 5)" fill="white"/>
<rect x="45" y="10" width="5" height="5" transform="rotate(90 45 10)" fill="white"/>
<rect x="45" y="15" width="5" height="5" transform="rotate(90 45 15)" fill="white"/>
<rect x="45" y="20" width="5" height="5" transform="rotate(90 45 20)" fill="white"/>
<rect x="45" y="25" width="5" height="5" transform="rotate(90 45 25)" fill="white"/>
<rect x="45" y="30" width="5" height="5" transform="rotate(90 45 30)" fill="white"/>
<rect x="45" y="35" width="5" height="5" transform="rotate(90 45 35)" fill="white"/>
<rect x="45" y="40" width="5" height="5" transform="rotate(90 45 40)" fill="white"/>
<rect x="45" y="5" width="5" height="5" transform="rotate(-180 45 5)" fill="white"/>
<rect x="40" y="5" width="5" height="5" transform="rotate(-180 40 5)" fill="white"/>
<rect x="25" y="25" width="5" height="5" transform="rotate(-180 25 25)" fill="white"/>
<rect x="30" y="20" width="5" height="5" transform="rotate(-180 30 20)" fill="white"/>
<rect x="35" y="15" width="5" height="5" transform="rotate(-180 35 15)" fill="white"/>
<rect x="30" y="30" width="5" height="5" transform="rotate(-180 30 30)" fill="white"/>
<rect x="35" y="35" width="5" height="5" transform="rotate(-180 35 35)" fill="white"/>
<rect width="5" height="5" transform="matrix(1 0 0 -1 15 20)" fill="white"/>
<rect width="5" height="5" transform="matrix(1 0 0 -1 10 15)" fill="white"/>
<rect width="5" height="5" transform="matrix(1 0 0 -1 15 30)" fill="white"/>
<rect width="5" height="5" transform="matrix(1 0 0 -1 10 35)" fill="white"/>
<rect x="35" y="5" width="5" height="5" transform="rotate(-180 35 5)" fill="white"/>
<rect x="30" y="5" width="5" height="5" transform="rotate(-180 30 5)" fill="white"/>
<rect x="25" y="5" width="5" height="5" transform="rotate(-180 25 5)" fill="white"/>
<rect x="20" y="5" width="5" height="5" transform="rotate(-180 20 5)" fill="white"/>
<rect x="15" y="5" width="5" height="5" transform="rotate(-180 15 5)" fill="white"/>
<rect x="10" y="5" width="5" height="5" transform="rotate(-180 10 5)" fill="white"/>
<rect x="5" y="5" width="5" height="5" transform="rotate(-180 5 5)" fill="white"/>
<rect y="45" width="5" height="5" transform="rotate(-90 0 45)" fill="white"/>
<rect y="40" width="5" height="5" transform="rotate(-90 0 40)" fill="white"/>
<rect y="35" width="5" height="5" transform="rotate(-90 0 35)" fill="white"/>
<rect y="30" width="5" height="5" transform="rotate(-90 0 30)" fill="white"/>
<rect y="25" width="5" height="5" transform="rotate(-90 0 25)" fill="white"/>
<rect y="20" width="5" height="5" transform="rotate(-90 0 20)" fill="white"/>
<rect y="15" width="5" height="5" transform="rotate(-90 0 15)" fill="white"/>
<rect y="10" width="5" height="5" transform="rotate(-90 0 10)" fill="white"/>
<rect y="5" width="5" height="5" transform="rotate(-90 0 5)" fill="white"/>
</svg>
