<svg width="47" height="47" viewBox="0 0 47 47" fill="none" xmlns="http://www.w3.org/2000/svg">
<rect x="6" y="1" width="5" height="5" transform="rotate(90 6 1)" stroke="white" stroke-width="0.5"/>
<rect x="6" y="21" width="5" height="5" transform="rotate(90 6 21)" stroke="white" stroke-width="0.5"/>
<rect x="46" y="1" width="5" height="5" transform="rotate(90 46 1)" stroke="white" stroke-width="0.5"/>
<rect x="6" y="41" width="5" height="5" transform="rotate(90 6 41)" stroke="white" stroke-width="0.5"/>
<rect x="6" y="31" width="5" height="5" transform="rotate(-90 6 31)" stroke="white" stroke-width="0.5"/>
<rect x="11" y="36" width="5" height="5" transform="rotate(-90 11 36)" stroke="white" stroke-width="0.5"/>
<rect x="16" y="41" width="5" height="5" transform="rotate(-90 16 41)" stroke="white" stroke-width="0.5"/>
<rect x="21" y="46" width="5" height="5" transform="rotate(-90 21 46)" stroke="white" stroke-width="0.5"/>
<rect x="26" y="1" width="5" height="5" transform="rotate(90 26 1)" stroke="white" stroke-width="0.5"/>
<rect x="26" y="11" width="5" height="5" transform="rotate(-90 26 11)" stroke="white" stroke-width="0.5"/>
<rect x="31" y="16" width="5" height="5" transform="rotate(-90 31 16)" stroke="white" stroke-width="0.5"/>
<rect x="36" y="21" width="5" height="5" transform="rotate(-90 36 21)" stroke="white" stroke-width="0.5"/>
<rect x="41" y="26" width="5" height="5" transform="rotate(-90 41 26)" stroke="white" stroke-width="0.5"/>
<rect x="6" y="11" width="5" height="5" transform="rotate(-90 6 11)" stroke="white" stroke-width="0.5"/>
<rect x="11" y="16" width="5" height="5" transform="rotate(-90 11 16)" stroke="white" stroke-width="0.5"/>
<rect x="16" y="21" width="5" height="5" transform="rotate(-90 16 21)" stroke="white" stroke-width="0.5"/>
<rect x="21" y="26" width="5" height="5" transform="rotate(-90 21 26)" stroke="white" stroke-width="0.5"/>
<rect x="26" y="31" width="5" height="5" transform="rotate(-90 26 31)" stroke="white" stroke-width="0.5"/>
<rect x="31" y="36" width="5" height="5" transform="rotate(-90 31 36)" stroke="white" stroke-width="0.5"/>
<rect x="36" y="41" width="5" height="5" transform="rotate(-90 36 41)" stroke="white" stroke-width="0.5"/>
<rect x="41" y="46" width="5" height="5" transform="rotate(-90 41 46)" stroke="white" stroke-width="0.5"/>
</svg>
