<svg width="45" height="45" viewBox="0 0 45 45" fill="none" xmlns="http://www.w3.org/2000/svg">
<rect x="5" width="5" height="5" transform="rotate(90 5 0)" fill="white"/>
<rect x="5" y="5" width="5" height="5" transform="rotate(90 5 5)" fill="white"/>
<rect x="5" y="15" width="5" height="5" transform="rotate(90 5 15)" fill="white"/>
<rect x="5" y="10" width="5" height="5" transform="rotate(90 5 10)" fill="white"/>
<rect x="5" y="20" width="5" height="5" transform="rotate(90 5 20)" fill="white"/>
<rect x="5" y="25" width="5" height="5" transform="rotate(90 5 25)" fill="white"/>
<rect x="5" y="35" width="5" height="5" transform="rotate(90 5 35)" fill="white"/>
<rect x="5" y="40" width="5" height="5" transform="rotate(90 5 40)" fill="white"/>
<rect x="5" y="30" width="5" height="5" transform="rotate(90 5 30)" fill="white"/>
<rect x="15" width="5" height="5" transform="rotate(90 15 0)" fill="white"/>
<rect x="15" y="5" width="5" height="5" transform="rotate(90 15 5)" fill="white"/>
<rect x="15" y="15" width="5" height="5" transform="rotate(90 15 15)" fill="white"/>
<rect x="15" y="10" width="5" height="5" transform="rotate(90 15 10)" fill="white"/>
<rect x="15" y="20" width="5" height="5" transform="rotate(90 15 20)" fill="white"/>
<rect x="15" y="25" width="5" height="5" transform="rotate(90 15 25)" fill="white"/>
<rect x="15" y="35" width="5" height="5" transform="rotate(90 15 35)" fill="white"/>
<rect x="15" y="40" width="5" height="5" transform="rotate(90 15 40)" fill="white"/>
<rect x="15" y="30" width="5" height="5" transform="rotate(90 15 30)" fill="white"/>
<rect x="25" width="5" height="5" transform="rotate(90 25 0)" fill="white"/>
<rect x="25" y="5" width="5" height="5" transform="rotate(90 25 5)" fill="white"/>
<rect x="25" y="15" width="5" height="5" transform="rotate(90 25 15)" fill="white"/>
<rect x="25" y="10" width="5" height="5" transform="rotate(90 25 10)" fill="white"/>
<rect x="25" y="20" width="5" height="5" transform="rotate(90 25 20)" fill="white"/>
<rect x="25" y="25" width="5" height="5" transform="rotate(90 25 25)" fill="white"/>
<rect x="25" y="35" width="5" height="5" transform="rotate(90 25 35)" fill="white"/>
<rect x="25" y="40" width="5" height="5" transform="rotate(90 25 40)" fill="white"/>
<rect x="25" y="30" width="5" height="5" transform="rotate(90 25 30)" fill="white"/>
<rect x="35" width="5" height="5" transform="rotate(90 35 0)" fill="white"/>
<rect x="35" y="5" width="5" height="5" transform="rotate(90 35 5)" fill="white"/>
<rect x="35" y="15" width="5" height="5" transform="rotate(90 35 15)" fill="white"/>
<rect x="35" y="10" width="5" height="5" transform="rotate(90 35 10)" fill="white"/>
<rect x="35" y="20" width="5" height="5" transform="rotate(90 35 20)" fill="white"/>
<rect x="35" y="25" width="5" height="5" transform="rotate(90 35 25)" fill="white"/>
<rect x="35" y="35" width="5" height="5" transform="rotate(90 35 35)" fill="white"/>
<rect x="35" y="40" width="5" height="5" transform="rotate(90 35 40)" fill="white"/>
<rect x="35" y="30" width="5" height="5" transform="rotate(90 35 30)" fill="white"/>
<rect x="45" width="5" height="5" transform="rotate(90 45 0)" fill="white"/>
<rect x="45" y="5" width="5" height="5" transform="rotate(90 45 5)" fill="white"/>
<rect x="45" y="15" width="5" height="5" transform="rotate(90 45 15)" fill="white"/>
<rect x="45" y="10" width="5" height="5" transform="rotate(90 45 10)" fill="white"/>
<rect x="45" y="20" width="5" height="5" transform="rotate(90 45 20)" fill="white"/>
<rect x="45" y="25" width="5" height="5" transform="rotate(90 45 25)" fill="white"/>
<rect x="45" y="35" width="5" height="5" transform="rotate(90 45 35)" fill="white"/>
<rect x="45" y="40" width="5" height="5" transform="rotate(90 45 40)" fill="white"/>
<rect x="45" y="30" width="5" height="5" transform="rotate(90 45 30)" fill="white"/>
</svg>
