<svg width="45" height="45" viewBox="0 0 45 45" fill="none" xmlns="http://www.w3.org/2000/svg">
<rect x="4.75" y="40.25" width="4.5" height="4.5" transform="rotate(90 4.75 40.25)" stroke="white" stroke-width="0.5"/>
<rect x="14.75" y="40.25" width="4.5" height="4.5" transform="rotate(90 14.75 40.25)" stroke="white" stroke-width="0.5"/>
<rect x="24.75" y="40.25" width="4.5" height="4.5" transform="rotate(90 24.75 40.25)" stroke="white" stroke-width="0.5"/>
<rect x="34.75" y="40.25" width="4.5" height="4.5" transform="rotate(90 34.75 40.25)" stroke="white" stroke-width="0.5"/>
<rect x="44.75" y="40.25" width="4.5" height="4.5" transform="rotate(90 44.75 40.25)" stroke="white" stroke-width="0.5"/>
<rect x="4.75" y="30.25" width="4.5" height="4.5" transform="rotate(90 4.75 30.25)" stroke="white" stroke-width="0.5"/>
<rect x="14.75" y="30.25" width="4.5" height="4.5" transform="rotate(90 14.75 30.25)" stroke="white" stroke-width="0.5"/>
<rect x="24.75" y="30.25" width="4.5" height="4.5" transform="rotate(90 24.75 30.25)" stroke="white" stroke-width="0.5"/>
<rect x="34.75" y="30.25" width="4.5" height="4.5" transform="rotate(90 34.75 30.25)" stroke="white" stroke-width="0.5"/>
<rect x="44.75" y="30.25" width="4.5" height="4.5" transform="rotate(90 44.75 30.25)" stroke="white" stroke-width="0.5"/>
<rect x="4.75" y="20.25" width="4.5" height="4.5" transform="rotate(90 4.75 20.25)" stroke="white" stroke-width="0.5"/>
<rect x="14.75" y="20.25" width="4.5" height="4.5" transform="rotate(90 14.75 20.25)" stroke="white" stroke-width="0.5"/>
<rect x="24.75" y="20.25" width="4.5" height="4.5" transform="rotate(90 24.75 20.25)" stroke="white" stroke-width="0.5"/>
<rect x="34.75" y="20.25" width="4.5" height="4.5" transform="rotate(90 34.75 20.25)" stroke="white" stroke-width="0.5"/>
<rect x="44.75" y="20.25" width="4.5" height="4.5" transform="rotate(90 44.75 20.25)" stroke="white" stroke-width="0.5"/>
<rect x="4.75" y="10.25" width="4.5" height="4.5" transform="rotate(90 4.75 10.25)" stroke="white" stroke-width="0.5"/>
<rect x="14.75" y="10.25" width="4.5" height="4.5" transform="rotate(90 14.75 10.25)" stroke="white" stroke-width="0.5"/>
<rect x="24.75" y="10.25" width="4.5" height="4.5" transform="rotate(90 24.75 10.25)" stroke="white" stroke-width="0.5"/>
<rect x="34.75" y="10.25" width="4.5" height="4.5" transform="rotate(90 34.75 10.25)" stroke="white" stroke-width="0.5"/>
<rect x="44.75" y="10.25" width="4.5" height="4.5" transform="rotate(90 44.75 10.25)" stroke="white" stroke-width="0.5"/>
<rect x="4.75" y="0.25" width="4.5" height="4.5" transform="rotate(90 4.75 0.25)" stroke="white" stroke-width="0.5"/>
<rect x="14.75" y="0.25" width="4.5" height="4.5" transform="rotate(90 14.75 0.25)" stroke="white" stroke-width="0.5"/>
<rect x="24.75" y="0.25" width="4.5" height="4.5" transform="rotate(90 24.75 0.25)" stroke="white" stroke-width="0.5"/>
<rect x="34.75" y="0.25" width="4.5" height="4.5" transform="rotate(90 34.75 0.25)" stroke="white" stroke-width="0.5"/>
<rect x="44.75" y="0.25" width="4.5" height="4.5" transform="rotate(90 44.75 0.25)" stroke="white" stroke-width="0.5"/>
</svg>
