<svg width="45" height="45" viewBox="0 0 45 45" fill="none" xmlns="http://www.w3.org/2000/svg">
<rect x="10" width="5" height="5" transform="rotate(90 10 0)" fill="white"/>
<rect x="5" y="5" width="5" height="5" transform="rotate(90 5 5)" fill="white"/>
<rect x="5" y="10" width="5" height="5" transform="rotate(90 5 10)" fill="white"/>
<rect x="15" width="5" height="5" transform="rotate(90 15 0)" fill="white"/>
<rect x="20" y="5" width="5" height="5" transform="rotate(90 20 5)" fill="white"/>
<rect x="20" y="10" width="5" height="5" transform="rotate(90 20 10)" fill="white"/>
<rect x="20" y="15" width="5" height="5" transform="rotate(90 20 15)" fill="white"/>
<rect x="15" y="15" width="5" height="5" transform="rotate(90 15 15)" fill="white"/>
<rect x="10" y="15" width="5" height="5" transform="rotate(90 10 15)" fill="white"/>
<rect width="5" height="5" transform="matrix(4.37114e-08 1 1 -4.37114e-08 35 0)" fill="white"/>
<rect width="5" height="5" transform="matrix(4.37114e-08 1 1 -4.37114e-08 40 5)" fill="white"/>
<rect width="5" height="5" transform="matrix(4.37114e-08 1 1 -4.37114e-08 40 10)" fill="white"/>
<rect width="5" height="5" transform="matrix(4.37114e-08 1 1 -4.37114e-08 30 0)" fill="white"/>
<rect width="5" height="5" transform="matrix(4.37114e-08 1 1 -4.37114e-08 25 5)" fill="white"/>
<rect width="5" height="5" transform="matrix(4.37114e-08 1 1 -4.37114e-08 25 10)" fill="white"/>
<rect width="5" height="5" transform="matrix(4.37114e-08 1 1 -4.37114e-08 25 15)" fill="white"/>
<rect width="5" height="5" transform="matrix(4.37114e-08 1 1 -4.37114e-08 25 20)" fill="white"/>
<rect width="5" height="5" transform="matrix(4.37114e-08 1 1 -4.37114e-08 20 25)" fill="white"/>
<rect width="5" height="5" transform="matrix(4.37114e-08 1 1 -4.37114e-08 15 20)" fill="white"/>
<rect width="5" height="5" transform="matrix(4.37114e-08 1 1 -4.37114e-08 15 20)" fill="white"/>
<rect width="5" height="5" transform="matrix(4.37114e-08 1 1 -4.37114e-08 20 15)" fill="white"/>
<rect width="5" height="5" transform="matrix(4.37114e-08 1 1 -4.37114e-08 30 15)" fill="white"/>
<rect width="5" height="5" transform="matrix(4.37114e-08 1 1 -4.37114e-08 35 15)" fill="white"/>
<rect x="35" y="45" width="5" height="5" transform="rotate(-90 35 45)" fill="white"/>
<rect x="40" y="40" width="5" height="5" transform="rotate(-90 40 40)" fill="white"/>
<rect x="40" y="35" width="5" height="5" transform="rotate(-90 40 35)" fill="white"/>
<rect x="30" y="45" width="5" height="5" transform="rotate(-90 30 45)" fill="white"/>
<rect x="25" y="40" width="5" height="5" transform="rotate(-90 25 40)" fill="white"/>
<rect x="25" y="35" width="5" height="5" transform="rotate(-90 25 35)" fill="white"/>
<rect x="25" y="30" width="5" height="5" transform="rotate(-90 25 30)" fill="white"/>
<rect x="30" y="30" width="5" height="5" transform="rotate(-90 30 30)" fill="white"/>
<rect x="35" y="30" width="5" height="5" transform="rotate(-90 35 30)" fill="white"/>
<rect width="5" height="5" transform="matrix(-4.37114e-08 -1 -1 4.37114e-08 10 45)" fill="white"/>
<rect width="5" height="5" transform="matrix(-4.37114e-08 -1 -1 4.37114e-08 5 40)" fill="white"/>
<rect width="5" height="5" transform="matrix(-4.37114e-08 -1 -1 4.37114e-08 5 35)" fill="white"/>
<rect width="5" height="5" transform="matrix(-4.37114e-08 -1 -1 4.37114e-08 15 45)" fill="white"/>
<rect width="5" height="5" transform="matrix(-4.37114e-08 -1 -1 4.37114e-08 20 40)" fill="white"/>
<rect width="5" height="5" transform="matrix(-4.37114e-08 -1 -1 4.37114e-08 20 35)" fill="white"/>
<rect width="5" height="5" transform="matrix(-4.37114e-08 -1 -1 4.37114e-08 20 30)" fill="white"/>
<rect width="5" height="5" transform="matrix(-4.37114e-08 -1 -1 4.37114e-08 15 30)" fill="white"/>
<rect width="5" height="5" transform="matrix(-4.37114e-08 -1 -1 4.37114e-08 10 30)" fill="white"/>
</svg>
