<svg width="45" height="45" viewBox="0 0 45 45" fill="none" xmlns="http://www.w3.org/2000/svg">
<rect x="0.25" y="4.75" width="4.5" height="4.5" transform="rotate(-90 0.25 4.75)" stroke="white" stroke-width="0.5"/>
<rect x="0.25" y="24.75" width="4.5" height="4.5" transform="rotate(-90 0.25 24.75)" stroke="white" stroke-width="0.5"/>
<rect x="0.25" y="44.75" width="4.5" height="4.5" transform="rotate(-90 0.25 44.75)" stroke="white" stroke-width="0.5"/>
<rect x="40.25" y="40.25" width="4.5" height="4.5" stroke="white" stroke-width="0.5"/>
<rect x="20.25" y="40.25" width="4.5" height="4.5" stroke="white" stroke-width="0.5"/>
<rect x="20.25" y="20.25" width="4.5" height="4.5" stroke="white" stroke-width="0.5"/>
<rect x="40.25" y="20.25" width="4.5" height="4.5" stroke="white" stroke-width="0.5"/>
<rect x="40.25" y="0.25" width="4.5" height="4.5" stroke="white" stroke-width="0.5"/>
<rect x="20.25" y="0.25" width="4.5" height="4.5" stroke="white" stroke-width="0.5"/>
<rect x="10.25" y="10.25" width="4.5" height="4.5" stroke="white" stroke-width="0.5"/>
<rect x="10.25" y="30.25" width="4.5" height="4.5" stroke="white" stroke-width="0.5"/>
<rect x="30.25" y="30.25" width="4.5" height="4.5" stroke="white" stroke-width="0.5"/>
<rect x="30.25" y="9.25" width="4.5" height="4.5" stroke="white" stroke-width="0.5"/>
</svg>
