<svg width="15" height="13" viewBox="0 0 15 13" fill="none" xmlns="http://www.w3.org/2000/svg">
<g id="Group 40">
<rect id="Rectangle 123" x="5.18555" y="12.9629" width="2.59259" height="2.59259" transform="rotate(-90 5.18555 12.9629)" fill="white"/>
<rect id="Rectangle 124" x="5.18555" y="10.3701" width="2.59259" height="2.59259" transform="rotate(-90 5.18555 10.3701)" fill="white"/>
<rect id="Rectangle 125" x="5.18555" y="7.77734" width="2.59259" height="2.59259" transform="rotate(-90 5.18555 7.77734)" fill="white"/>
<rect id="Rectangle 126" x="7.77734" y="7.77734" width="2.59259" height="2.59259" transform="rotate(-90 7.77734 7.77734)" fill="white"/>
<rect id="Rectangle 133" x="9.50586" y="7.77734" width="2.59259" height="2.59259" transform="rotate(-90 9.50586 7.77734)" fill="white"/>
<rect id="Rectangle 134" x="12.0996" y="7.77734" width="2.59259" height="2.59259" transform="rotate(-90 12.0996 7.77734)" fill="white"/>
<rect id="Rectangle 127" x="2.5918" y="7.77734" width="2.59259" height="2.59259" transform="rotate(-90 2.5918 7.77734)" fill="white"/>
<rect id="Rectangle 128" x="2.5918" y="10.3701" width="2.59259" height="2.59259" transform="rotate(-90 2.5918 10.3701)" fill="white"/>
<rect id="Rectangle 129" y="7.77734" width="2.59259" height="2.59259" transform="rotate(-90 0 7.77734)" fill="white"/>
<rect id="Rectangle 130" x="2.5918" y="5.18555" width="2.59259" height="2.59259" transform="rotate(-90 2.5918 5.18555)" fill="white"/>
<rect id="Rectangle 131" x="5.18555" y="5.18555" width="2.59259" height="2.59259" transform="rotate(-90 5.18555 5.18555)" fill="white"/>
<rect id="Rectangle 132" x="5.18555" y="2.59277" width="2.59259" height="2.59259" transform="rotate(-90 5.18555 2.59277)" fill="white"/>
</g>
</svg>
