<svg width="15" height="14" viewBox="0 0 15 14" fill="none" xmlns="http://www.w3.org/2000/svg">
<g id="Group 41">
<rect id="Rectangle 123" width="2.59259" height="2.59259" transform="matrix(4.37114e-08 -1 -1 -4.37114e-08 9.81445 13.8271)" fill="white"/>
<rect id="Rectangle 124" width="2.59259" height="2.59259" transform="matrix(4.37114e-08 -1 -1 -4.37114e-08 9.81445 11.2344)" fill="white"/>
<rect id="Rectangle 125" width="2.59259" height="2.59259" transform="matrix(4.37114e-08 -1 -1 -4.37114e-08 9.81445 8.6416)" fill="white"/>
<rect id="Rectangle 126" width="2.59259" height="2.59259" transform="matrix(4.37114e-08 -1 -1 -4.37114e-08 7.22266 8.6416)" fill="white"/>
<rect id="Rectangle 133" width="2.59259" height="2.59259" transform="matrix(4.37114e-08 -1 -1 -4.37114e-08 5.49414 8.6416)" fill="white"/>
<rect id="Rectangle 134" width="2.59259" height="2.59259" transform="matrix(4.37114e-08 -1 -1 -4.37114e-08 2.90039 8.6416)" fill="white"/>
<rect id="Rectangle 127" width="2.59259" height="2.59259" transform="matrix(4.37114e-08 -1 -1 -4.37114e-08 12.4082 8.6416)" fill="white"/>
<rect id="Rectangle 128" width="2.59259" height="2.59259" transform="matrix(4.37114e-08 -1 -1 -4.37114e-08 12.4082 11.2344)" fill="white"/>
<rect id="Rectangle 129" width="2.59259" height="2.59259" transform="matrix(4.37114e-08 -1 -1 -4.37114e-08 15 8.6416)" fill="white"/>
<rect id="Rectangle 130" width="2.59259" height="2.59259" transform="matrix(4.37114e-08 -1 -1 -4.37114e-08 12.4082 6.0498)" fill="white"/>
<rect id="Rectangle 131" width="2.59259" height="2.59259" transform="matrix(4.37114e-08 -1 -1 -4.37114e-08 9.81445 6.0498)" fill="white"/>
<rect id="Rectangle 132" width="2.59259" height="2.59259" transform="matrix(4.37114e-08 -1 -1 -4.37114e-08 9.81445 3.45703)" fill="white"/>
</g>
</svg>
